<mxfile host="app.diagrams.net" modified="2021-10-21T22:05:38.500Z" agent="5.0 (Windows NT 10.0; Win64; x64) AppleWebKit/537.36 (KHTML, like Gecko) Chrome/95.0.4638.54 Safari/537.36" etag="kfya79nqe9q65sjti25U" version="15.5.8" type="github">
  <diagram id="cQiaPVA6_7n2lRbbFgf3" name="Page-1">
    <mxGraphModel dx="2062" dy="1100" grid="1" gridSize="10" guides="1" tooltips="1" connect="1" arrows="1" fold="1" page="1" pageScale="1" pageWidth="850" pageHeight="1100" math="0" shadow="0">
      <root>
        <mxCell id="0" />
        <mxCell id="1" parent="0" />
        <mxCell id="Faiy6mNt1-_q737ygW8u-1" value="league-prod-toolkit&lt;br&gt;Server" style="rounded=0;whiteSpace=wrap;html=1;fillColor=#dae8fc;strokeColor=#6c8ebf;" parent="1" vertex="1">
          <mxGeometry x="360" y="360" width="120" height="60" as="geometry" />
        </mxCell>
        <mxCell id="Faiy6mNt1-_q737ygW8u-2" value="HTTP Administration&lt;br&gt;Interface" style="rounded=1;whiteSpace=wrap;html=1;fillColor=#f5f5f5;strokeColor=#666666;fontColor=#333333;" parent="1" vertex="1">
          <mxGeometry x="120" y="480" width="120" height="60" as="geometry" />
        </mxCell>
        <mxCell id="Faiy6mNt1-_q737ygW8u-3" value="HTTP" style="endArrow=classic;html=1;exitX=1;exitY=0.5;exitDx=0;exitDy=0;entryX=0;entryY=1;entryDx=0;entryDy=0;" parent="1" source="Faiy6mNt1-_q737ygW8u-2" edge="1" target="Faiy6mNt1-_q737ygW8u-1">
          <mxGeometry x="-0.1995" y="1" width="50" height="50" relative="1" as="geometry">
            <mxPoint x="419" y="460" as="sourcePoint" />
            <mxPoint x="419" y="420" as="targetPoint" />
            <mxPoint as="offset" />
          </mxGeometry>
        </mxCell>
        <mxCell id="Faiy6mNt1-_q737ygW8u-9" value="League Web APIs" style="rounded=1;whiteSpace=wrap;html=1;fillColor=#d5e8d4;strokeColor=#82b366;" parent="1" vertex="1">
          <mxGeometry x="360" y="220" width="120" height="60" as="geometry" />
        </mxCell>
        <mxCell id="Faiy6mNt1-_q737ygW8u-14" value="HTTPS (needs API Key)" style="endArrow=classic;html=1;exitX=0.5;exitY=0;exitDx=0;exitDy=0;" parent="1" source="Faiy6mNt1-_q737ygW8u-1" target="Faiy6mNt1-_q737ygW8u-9" edge="1">
          <mxGeometry width="50" height="50" relative="1" as="geometry">
            <mxPoint x="160" y="260" as="sourcePoint" />
            <mxPoint x="450" y="470" as="targetPoint" />
          </mxGeometry>
        </mxCell>
        <mxCell id="Yvf4IJ3WHjKF0WGFXt6R-1" style="rounded=0;orthogonalLoop=1;jettySize=auto;html=1;exitX=0;exitY=0.5;exitDx=0;exitDy=0;entryX=1;entryY=0.5;entryDx=0;entryDy=0;" edge="1" parent="1" source="Faiy6mNt1-_q737ygW8u-1" target="Faiy6mNt1-_q737ygW8u-21">
          <mxGeometry relative="1" as="geometry">
            <mxPoint x="470" y="480" as="targetPoint" />
          </mxGeometry>
        </mxCell>
        <mxCell id="Yvf4IJ3WHjKF0WGFXt6R-9" value="Overlays" style="edgeLabel;html=1;align=center;verticalAlign=middle;resizable=0;points=[];" vertex="1" connectable="0" parent="Yvf4IJ3WHjKF0WGFXt6R-1">
          <mxGeometry x="-0.2" y="-2" relative="1" as="geometry">
            <mxPoint x="-12" y="2" as="offset" />
          </mxGeometry>
        </mxCell>
        <mxCell id="Faiy6mNt1-_q737ygW8u-21" value="Browser Source&lt;br&gt;On Stream&lt;br&gt;(OBS, vMix, etc.)" style="rounded=1;whiteSpace=wrap;html=1;fillColor=#f5f5f5;strokeColor=#666666;fontColor=#333333;" parent="1" vertex="1">
          <mxGeometry x="120" y="360" width="120" height="60" as="geometry" />
        </mxCell>
        <mxCell id="Yvf4IJ3WHjKF0WGFXt6R-2" value="Observer Tool&lt;br&gt;Observer 1" style="rounded=0;whiteSpace=wrap;html=1;fillColor=#e1d5e7;strokeColor=#9673a6;" vertex="1" parent="1">
          <mxGeometry x="600" y="360" width="120" height="60" as="geometry" />
        </mxCell>
        <mxCell id="Yvf4IJ3WHjKF0WGFXt6R-3" value="League Client APIs" style="rounded=1;whiteSpace=wrap;html=1;fillColor=#d5e8d4;strokeColor=#82b366;" vertex="1" parent="1">
          <mxGeometry x="600" y="220" width="120" height="60" as="geometry" />
        </mxCell>
        <mxCell id="Yvf4IJ3WHjKF0WGFXt6R-4" value="HTTPS" style="endArrow=classic;html=1;exitX=0.5;exitY=0;exitDx=0;exitDy=0;entryX=0.5;entryY=1;entryDx=0;entryDy=0;" edge="1" parent="1" source="Yvf4IJ3WHjKF0WGFXt6R-2" target="Yvf4IJ3WHjKF0WGFXt6R-3">
          <mxGeometry width="50" height="50" relative="1" as="geometry">
            <mxPoint x="430" y="370" as="sourcePoint" />
            <mxPoint x="430" y="290" as="targetPoint" />
          </mxGeometry>
        </mxCell>
        <mxCell id="Yvf4IJ3WHjKF0WGFXt6R-5" value="Observer Tool&lt;br&gt;Observer 2" style="rounded=0;whiteSpace=wrap;html=1;fillColor=#e1d5e7;strokeColor=#9673a6;" vertex="1" parent="1">
          <mxGeometry x="600" y="480" width="120" height="60" as="geometry" />
        </mxCell>
        <mxCell id="Yvf4IJ3WHjKF0WGFXt6R-7" value="" style="endArrow=classic;html=1;rounded=0;exitX=0;exitY=0.5;exitDx=0;exitDy=0;entryX=1;entryY=0.5;entryDx=0;entryDy=0;" edge="1" parent="1" source="Yvf4IJ3WHjKF0WGFXt6R-2" target="Faiy6mNt1-_q737ygW8u-1">
          <mxGeometry width="50" height="50" relative="1" as="geometry">
            <mxPoint x="550" y="430" as="sourcePoint" />
            <mxPoint x="600" y="380" as="targetPoint" />
          </mxGeometry>
        </mxCell>
        <mxCell id="Yvf4IJ3WHjKF0WGFXt6R-8" value="Game Data" style="edgeLabel;html=1;align=center;verticalAlign=middle;resizable=0;points=[];" vertex="1" connectable="0" parent="Yvf4IJ3WHjKF0WGFXt6R-7">
          <mxGeometry x="-0.1667" y="-1" relative="1" as="geometry">
            <mxPoint x="-10" y="1" as="offset" />
          </mxGeometry>
        </mxCell>
        <mxCell id="Yvf4IJ3WHjKF0WGFXt6R-11" value="" style="curved=1;endArrow=classic;html=1;rounded=0;exitX=0;exitY=0.25;exitDx=0;exitDy=0;entryX=0;entryY=0.75;entryDx=0;entryDy=0;startArrow=classic;startFill=1;dashed=1;" edge="1" parent="1" source="Yvf4IJ3WHjKF0WGFXt6R-5" target="Yvf4IJ3WHjKF0WGFXt6R-2">
          <mxGeometry width="50" height="50" relative="1" as="geometry">
            <mxPoint x="400" y="580" as="sourcePoint" />
            <mxPoint x="450" y="530" as="targetPoint" />
            <Array as="points">
              <mxPoint x="410" y="410" />
              <mxPoint x="520" y="410" />
            </Array>
          </mxGeometry>
        </mxCell>
        <mxCell id="Yvf4IJ3WHjKF0WGFXt6R-12" value="Sync Ingame Time" style="edgeLabel;html=1;align=center;verticalAlign=middle;resizable=0;points=[];" vertex="1" connectable="0" parent="Yvf4IJ3WHjKF0WGFXt6R-11">
          <mxGeometry x="-0.7723" relative="1" as="geometry">
            <mxPoint x="-36" y="-39" as="offset" />
          </mxGeometry>
        </mxCell>
      </root>
    </mxGraphModel>
  </diagram>
</mxfile>
